<?xml version="1.0" encoding="utf-8" ?>
<svg baseProfile="tiny" height="100%" version="1.2" width="100%" xmlns="http://www.w3.org/2000/svg" xmlns:ev="http://www.w3.org/2001/xml-events" xmlns:xlink="http://www.w3.org/1999/xlink"><defs /><path d="M 432,325 L 431,326 L 413,326 L 412,327 L 398,327 L 397,328 L 390,328 L 389,329 L 385,329 L 384,330 L 382,330 L 381,331 L 377,331 L 376,332 L 373,332 L 372,333 L 371,333 L 370,334 L 368,334 L 367,335 L 366,335 L 365,336 L 363,336 L 362,337 L 360,337 L 358,339 L 356,339 L 355,340 L 354,340 L 353,341 L 352,341 L 350,343 L 349,343 L 348,344 L 347,344 L 344,347 L 343,347 L 342,348 L 341,348 L 337,352 L 336,352 L 336,353 L 334,355 L 333,355 L 331,357 L 331,358 L 330,359 L 329,359 L 327,361 L 327,362 L 326,363 L 325,363 L 324,364 L 324,365 L 320,369 L 320,370 L 317,373 L 317,374 L 315,376 L 315,378 L 314,379 L 313,379 L 313,380 L 312,381 L 312,382 L 311,383 L 311,384 L 310,385 L 310,386 L 309,387 L 309,388 L 308,389 L 308,390 L 307,391 L 307,393 L 305,395 L 305,397 L 304,398 L 304,400 L 303,401 L 303,403 L 302,404 L 302,406 L 301,407 L 301,409 L 300,410 L 300,414 L 299,415 L 299,420 L 298,421 L 298,425 L 297,426 L 297,437 L 296,438 L 296,647 L 295,648 L 295,695 L 296,696 L 296,746 L 297,747 L 297,758 L 298,759 L 298,763 L 299,764 L 299,769 L 300,770 L 300,774 L 301,775 L 301,778 L 302,779 L 302,780 L 303,781 L 303,784 L 304,785 L 304,787 L 305,788 L 305,790 L 306,791 L 306,792 L 307,793 L 307,795 L 308,796 L 308,797 L 309,798 L 309,799 L 311,801 L 311,803 L 312,804 L 312,805 L 313,806 L 313,807 L 315,809 L 315,810 L 317,812 L 317,813 L 320,816 L 320,817 L 324,821 L 324,822 L 337,835 L 338,835 L 341,838 L 342,838 L 345,841 L 346,841 L 348,843 L 349,843 L 350,844 L 351,844 L 353,846 L 354,846 L 355,847 L 356,847 L 357,848 L 359,848 L 361,850 L 363,850 L 364,851 L 366,851 L 367,852 L 368,852 L 369,853 L 371,853 L 372,854 L 374,854 L 375,855 L 378,855 L 379,856 L 384,856 L 385,857 L 388,857 L 389,858 L 397,858 L 398,859 L 479,859 L 480,860 L 518,860 L 519,859 L 696,859 L 697,858 L 721,858 L 722,857 L 727,857 L 728,856 L 734,856 L 735,855 L 739,855 L 740,854 L 743,854 L 744,853 L 745,853 L 746,852 L 749,852 L 750,851 L 752,851 L 753,850 L 755,850 L 757,848 L 759,848 L 760,847 L 761,847 L 762,846 L 763,846 L 765,844 L 766,844 L 767,843 L 768,843 L 769,842 L 770,842 L 773,839 L 774,839 L 777,836 L 778,836 L 781,833 L 782,833 L 791,824 L 791,823 L 795,819 L 795,818 L 798,815 L 798,814 L 799,813 L 799,812 L 802,809 L 802,808 L 803,807 L 803,806 L 804,805 L 804,804 L 806,802 L 806,800 L 807,799 L 807,798 L 808,797 L 808,796 L 809,795 L 809,794 L 810,793 L 810,791 L 811,790 L 811,787 L 812,786 L 812,784 L 813,783 L 813,781 L 814,780 L 814,777 L 815,776 L 815,770 L 816,769 L 816,763 L 817,762 L 817,755 L 818,754 L 818,439 L 817,438 L 817,430 L 816,429 L 816,421 L 815,420 L 815,415 L 814,414 L 814,411 L 813,410 L 813,408 L 812,407 L 812,404 L 811,403 L 811,400 L 810,399 L 810,397 L 808,395 L 808,392 L 807,391 L 807,389 L 806,388 L 806,387 L 804,385 L 804,384 L 803,383 L 803,382 L 802,381 L 802,380 L 800,378 L 800,377 L 799,376 L 799,375 L 795,371 L 795,370 L 794,369 L 794,368 L 793,368 L 791,366 L 791,365 L 787,361 L 787,360 L 786,360 L 778,352 L 777,352 L 773,348 L 772,348 L 771,347 L 770,347 L 767,344 L 766,344 L 765,343 L 764,343 L 762,341 L 761,341 L 760,340 L 759,340 L 758,339 L 757,339 L 756,338 L 755,338 L 754,337 L 753,337 L 752,336 L 750,336 L 749,335 L 747,335 L 745,333 L 743,333 L 742,332 L 739,332 L 738,331 L 735,331 L 734,330 L 732,330 L 731,329 L 727,329 L 726,328 L 718,328 L 717,327 L 680,327 L 679,326 L 494,326 L 493,325 L 490,325 L 489,326 L 485,326 L 484,325 Z" fill="black" stroke="none" /></svg>